<svg width="1037" height="488" viewBox="0 0 1037 488" fill="none" xmlns="http://www.w3.org/2000/svg">
<path d="M985.252 352.667C980.064 347.137 968.059 342.4 951.979 339.264V267.988H951.243V267.252H937.967V267.988H917.107C918.976 257.204 925.211 219.602 923.955 204.5C923.955 204.5 940.163 160.211 926.901 123.299C926.901 123.299 940.178 126.251 941.638 111.487C942.828 99.5664 956.488 73.2296 940.801 58.0762C937.119 54.2085 931.645 51.011 923.74 48.8675L919.906 38.124C922.408 34.1591 923.955 28.8079 923.955 22.9092C923.955 14.9641 921.167 8.00133 916.99 4.09275C914.585 1.53478 911.649 0 908.478 0C906.062 0.0371008 903.728 0.875536 901.839 2.38403C902.115 2.59378 902.38 2.81888 902.646 3.05422C897.8 6.68142 894.476 14.1967 894.476 22.8836C894.476 29.4576 896.391 35.346 899.419 39.403L897.422 52.4128C897.422 52.4128 856.163 42.094 873.851 111.487C873.851 111.487 878.273 123.299 885.642 123.299C885.642 123.299 881.22 176.449 888.588 195.644C888.588 195.644 885.642 242.89 891.54 253.224V267.988H854.692V341.095C835.829 345.423 823.742 352.069 823.742 359.513C823.742 372.563 860.692 383.138 906.272 383.138C951.851 383.138 988.796 372.584 988.796 359.528C988.796 357.144 987.55 354.842 985.252 352.667Z" fill="#AFCAAF"/>
<path d="M694.831 360.413C690.016 355.266 678.833 350.862 663.846 347.94V281.612H663.162V280.927H650.82V281.612H631.415C633.157 271.58 638.957 236.592 637.788 222.533C637.788 222.533 652.872 181.314 640.53 146.966C640.53 146.966 652.872 149.713 654.246 135.977C655.354 124.885 668.064 100.375 653.465 86.2753C650.038 82.6941 644.947 79.7013 637.594 77.7163L634.02 67.6993C636.353 64.0056 637.788 59.0329 637.788 53.5384C637.788 46.1459 635.199 39.6691 631.308 36.0316C629.071 33.6476 626.34 32.2458 623.388 32.2458C621.143 32.2815 618.974 33.0624 617.22 34.4662C617.475 34.6606 617.73 34.8703 617.97 35.0852C613.461 38.4617 610.362 45.4552 610.362 53.5384C610.362 59.6775 612.149 65.1362 614.957 68.8862L613.099 80.9905C613.099 80.9905 574.704 71.3726 591.141 135.951C591.141 135.951 595.257 146.94 602.115 146.94C602.115 146.94 597.999 196.401 604.857 214.266C604.857 214.266 602.115 258.232 607.599 267.85V281.587H573.335V349.629C555.785 353.655 544.535 359.86 544.535 366.782C544.535 378.922 578.922 388.781 621.335 388.781C663.749 388.781 698.13 378.938 698.13 366.782C698.13 364.577 696.971 362.434 694.831 360.413Z" fill="#AFCAAF"/>
<path d="M807.82 356.95C804.246 353.113 795.902 349.833 784.74 347.659V298.259H784.229V297.748H775.037V298.259H760.586C761.883 290.785 766.203 264.719 765.335 254.262C765.335 254.262 776.569 223.567 767.378 197.987C767.378 197.987 776.569 200.033 777.591 189.801C778.418 181.539 787.885 163.286 777.008 152.782C774.455 150.102 770.666 147.887 765.187 146.408L762.532 138.934C764.429 135.747 765.401 132.094 765.34 128.385C765.34 122.88 763.41 118.055 760.51 115.344C758.845 113.569 756.813 112.525 754.617 112.525C752.944 112.553 751.328 113.136 750.021 114.183C750.215 114.326 750.399 114.479 750.583 114.643C747.223 117.155 744.915 122.363 744.915 128.385C744.915 132.943 746.248 137.025 748.346 139.834L746.957 148.853C746.957 148.853 718.362 141.691 730.617 189.781C730.617 189.781 733.681 197.966 738.787 197.966C738.787 197.966 735.723 234.801 740.83 248.103C740.83 248.103 738.787 280.845 742.872 288.007V298.239H717.34V348.887C704.268 351.885 695.894 356.494 695.894 361.677C695.894 370.722 721.502 378.048 753.085 378.048C784.668 378.048 810.277 370.717 810.277 361.677C810.277 360.05 809.414 358.454 807.82 356.95Z" fill="#AFCAAF"/>
<path d="M1016.15 365.329C1014.03 363.068 1009.12 361.134 1002.55 359.85V330.74H1002.25V330.439H996.828V330.74H988.311C989.077 326.336 991.625 310.972 991.109 304.808C991.109 304.808 997.747 286.713 992.314 271.636C992.314 271.636 997.732 272.843 998.334 266.812C998.845 261.946 1004.4 251.188 997.992 244.997C996.486 243.416 994.249 242.112 991.022 241.242L989.454 236.843C990.574 234.966 991.147 232.813 991.109 230.627C991.109 227.383 989.97 224.539 988.265 222.953C987.832 222.449 987.3 222.041 986.701 221.754C986.102 221.468 985.45 221.31 984.787 221.29C983.802 221.308 982.851 221.651 982.081 222.267C982.194 222.352 982.304 222.442 982.408 222.538C980.431 224.017 979.073 227.086 979.073 230.637C979.025 233.046 979.74 235.408 981.116 237.385L980.299 242.7C980.299 242.7 963.448 238.48 970.668 266.822C970.668 266.822 972.476 271.646 975.483 271.646C975.483 271.646 973.681 293.358 976.688 301.196C976.688 301.196 975.483 320.498 977.894 324.729V330.761H962.82V360.623C955.114 362.388 950.176 365.104 950.176 368.148C950.176 373.479 965.271 377.802 983.878 377.802C1002.49 377.802 1017.58 373.479 1017.58 368.148C1017.6 367.156 1017.09 366.214 1016.15 365.329Z" fill="#AFCAAF"/>
<path d="M576.997 365.329C574.883 363.068 569.975 361.134 563.398 359.85V330.741H563.097V330.439H557.679V330.741H549.162C549.928 326.336 552.476 310.973 551.96 304.808C551.96 304.808 558.598 286.713 553.165 271.636C553.165 271.636 558.583 272.843 559.186 266.812C559.671 261.946 565.252 251.188 558.843 244.997C557.311 243.416 555.1 242.112 551.873 241.242L550.306 236.843C551.425 234.966 551.998 232.813 551.96 230.627C551.96 227.383 550.821 224.539 549.116 222.953C548.683 222.449 548.151 222.041 547.552 221.754C546.953 221.468 546.301 221.31 545.638 221.29C544.653 221.308 543.702 221.651 542.932 222.267C543.046 222.352 543.155 222.442 543.259 222.538C541.283 224.017 539.924 227.086 539.924 230.637C539.869 233.039 540.573 235.397 541.936 237.375L541.119 242.69C541.119 242.69 524.268 238.469 531.488 266.812C531.488 266.812 533.296 271.636 536.304 271.636C536.304 271.636 534.501 293.348 537.509 301.186C537.509 301.186 536.304 320.488 538.714 324.719V330.751H523.671V360.612C515.965 362.377 511.027 365.094 511.027 368.138C511.027 373.469 526.122 377.792 544.729 377.792C563.337 377.792 578.431 373.469 578.431 368.138C578.447 367.156 577.936 366.214 576.997 365.329Z" fill="#AFCAAF"/>
<path d="M0 367H1037C1037 367 1018.13 518.195 919.829 460.5C829 428.196 836.451 428.851 782.5 460.5C728.549 492.149 672.913 500.246 607.5 460.5C555.913 408.246 521.59 432.673 424.5 451.284C340.5 479.784 323.5 490.398 268.827 451.284C221 404.608 163.004 406.114 94.673 415.412C26.3423 424.71 0 367 0 367Z" fill="#2F2E41"/>
<path d="M809.123 189.28C802.923 199.839 801.974 212.547 799.885 224.61C796.607 243.304 790.183 261.333 786.946 280.036C785.817 286.58 785.087 293.215 783.294 299.605C780.833 308.384 776.442 316.488 772.321 324.596C765.305 338.45 758.937 352.857 756.317 368.169C755.5 372.942 756.139 379.424 760.857 380.447C762.205 380.749 763.722 380.508 764.871 381.276C765.545 381.721 765.974 382.442 766.515 383.041C768.588 385.333 772.157 385.599 775.119 384.765C778.081 383.931 780.665 382.099 783.412 380.672C794.319 375.045 807.249 375.715 819.483 376.513C821.735 376.656 824.263 376.938 825.688 378.697C826.408 379.593 826.709 380.744 827.245 381.767C829.145 385.476 834.159 387.2 837.928 385.44C839.337 384.78 840.547 383.721 842.013 383.179C846.491 381.506 851.204 385.133 855.999 385.159C862.893 385.19 868.081 377.874 874.969 377.623C879.667 377.454 883.962 380.662 888.66 380.693C892.183 380.693 895.431 378.912 898.494 377.178L919.431 365.329C913.833 357.487 906.978 350.627 899.143 345.029C893.378 340.937 891.82 332.751 888.302 326.612C885.979 322.55 883.63 318.426 882.496 313.889C881.679 310.614 881.516 307.207 880.709 303.928C879.591 299.405 877.288 295.287 875.46 291.005C868.209 274.041 868.454 254.682 861.81 237.467C859.941 232.617 857.536 227.977 855.877 223.05C853.691 216.563 852.838 209.687 850.632 203.21C848.426 196.734 844.505 190.374 838.249 187.586C835.535 186.468 832.644 185.839 829.712 185.729C822.404 185.258 815.904 186.517 809.123 189.28Z" fill="#3F3D56"/>
<path d="M836.37 103.245H807.243V142.157H836.37V103.245Z" fill="#754D00"/>
<path d="M835.584 133.429C834.103 133.199 832.592 133.429 831.095 133.429C827.414 133.383 826.367 137.839 822.695 138.202C818.217 138.642 812.008 135.803 808.265 138.31C807.58 138.787 806.856 139.205 806.1 139.558C803.036 140.908 799.293 140.407 796.489 142.244C793.686 144.08 792.66 147.708 792.66 151.064C792.589 152.264 792.763 153.467 793.17 154.599C793.563 155.555 794.217 156.384 794.61 157.341C794.886 158.016 795.029 158.737 795.259 159.433C795.885 161.026 796.745 162.516 797.812 163.853L804.297 172.893C805.997 175.267 805.318 178.204 805.594 181.115C805.798 183.35 806.319 185.56 806.314 187.801C806.309 190.042 805.696 192.406 804.026 193.94C807.866 193.705 811.694 193.352 815.511 192.881C818.656 192.492 821.792 192.027 824.952 191.802C831.591 191.331 838.26 191.94 844.867 192.549C843.774 191.188 843.279 189.29 843.009 187.566C842.11 181.846 841.543 175.855 843.422 170.381C844.025 168.745 844.733 167.149 845.541 165.603L847.558 161.536C850.413 155.786 853.078 149.892 853.686 143.497C853.914 141.855 853.719 140.182 853.119 138.637C852.236 136.657 850.326 135.266 848.268 134.59C846.179 133.994 843.995 133.803 841.834 134.027C839.822 134.125 837.596 133.736 835.584 133.429Z" fill="#3F3D56"/>
<path d="M814.617 130.738C815.082 131.955 815.638 133.26 815.276 134.519C814.602 137.015 811.16 137.522 809.659 139.635C809.528 139.778 809.438 139.953 809.397 140.143C809.357 140.333 809.368 140.53 809.429 140.714C809.501 140.837 809.594 140.946 809.705 141.036C812.508 143.482 816.563 143.691 820.28 143.651C825.698 143.599 831.483 143.139 835.778 139.849C836.978 138.929 838.106 137.394 837.494 136.007C837.019 134.948 835.768 134.549 834.731 134.027C832.408 132.856 830.743 130.625 829.824 128.185C828.905 125.745 828.67 123.11 828.629 120.511C828.67 120.067 828.574 119.62 828.353 119.232C827.996 118.721 827.332 118.644 826.704 118.603C823.204 118.369 819.69 118.509 816.22 119.022C815.24 119.166 813.371 119.299 812.682 120.102C811.992 120.905 812.391 121.857 812.523 122.731C812.938 125.467 813.64 128.15 814.617 130.738Z" fill="#FBB3B2"/>
<path opacity="0.05" d="M814.617 130.738C815.082 131.955 815.638 133.26 815.276 134.519C814.602 137.015 811.16 137.522 809.659 139.635C809.528 139.778 809.438 139.953 809.397 140.143C809.357 140.333 809.368 140.53 809.429 140.714C809.501 140.837 809.594 140.946 809.705 141.036C812.508 143.482 816.563 143.691 820.28 143.651C825.698 143.599 831.483 143.139 835.778 139.849C836.978 138.929 838.106 137.394 837.494 136.007C837.019 134.948 835.768 134.549 834.731 134.027C832.408 132.856 830.743 130.625 829.824 128.185C828.905 125.745 828.67 123.11 828.629 120.511C828.67 120.067 828.574 119.62 828.353 119.232C827.996 118.721 827.332 118.644 826.704 118.603C823.204 118.369 819.69 118.509 816.22 119.022C815.24 119.166 813.371 119.299 812.682 120.102C811.992 120.905 812.391 121.857 812.523 122.731C812.938 125.467 813.64 128.15 814.617 130.738Z" fill="black"/>
<path d="M821.209 125.775C828.432 125.775 834.287 119.91 834.287 112.674C834.287 105.438 828.432 99.5717 821.209 99.5717C813.987 99.5717 808.132 105.438 808.132 112.674C808.132 119.91 813.987 125.775 821.209 125.775Z" fill="#FBB3B2"/>
<path opacity="0.1" d="M833.679 383.199C832.644 383.655 831.654 384.206 830.723 384.847C831.876 385.576 833.189 386.013 834.548 386.12C835.907 386.227 837.272 386 838.525 385.461C839.516 384.995 840.404 384.335 841.354 383.798C838.74 382.979 836.171 382.268 833.679 383.199Z" fill="black"/>
<path opacity="0.1" d="M775.089 380.698C772.877 381.833 770.769 383.22 768.486 384.166C770.559 385.404 773.332 385.461 775.717 384.77C778.678 383.905 781.262 382.105 784.004 380.677C789.989 377.608 796.586 376.405 803.337 376.073C793.553 375.745 783.693 376.267 775.089 380.698Z" fill="black"/>
<path opacity="0.1" d="M899.73 345.024C893.965 340.931 892.413 332.746 888.889 326.607C886.566 322.545 884.217 318.421 883.083 313.883C882.266 310.609 882.103 307.202 881.296 303.923C880.183 299.4 877.88 295.282 876.052 291C868.801 274.035 869.041 254.677 862.403 237.462C860.529 232.612 858.123 227.971 856.464 223.045C854.283 216.558 853.4 209.682 851.22 203.205C849.039 196.728 845.092 190.369 838.837 187.581C836.166 186.384 833.22 185.918 830.299 185.724C827.835 185.561 825.362 185.604 822.905 185.852C825.326 186.055 827.699 186.642 829.936 187.591C836.176 190.38 840.113 196.739 842.319 203.215C844.525 209.692 845.383 216.568 847.563 223.055C849.223 227.982 851.649 232.622 853.497 237.472C860.135 254.687 859.895 274.046 867.146 291.01C868.98 295.292 871.283 299.41 872.396 303.933C873.203 307.212 873.366 310.62 874.183 313.894C875.317 318.432 877.666 322.555 879.989 326.617C883.507 332.756 885.065 340.911 890.83 345.034C898.668 350.628 905.526 357.484 911.128 365.324L890.191 377.173C888.441 378.223 886.604 379.124 884.702 379.864C886.184 380.37 887.733 380.647 889.298 380.687C892.816 380.687 896.064 378.907 899.128 377.173L920.064 365.324C914.454 357.477 907.583 350.617 899.73 345.024Z" fill="black"/>
<path opacity="0.1" d="M866.636 377.644C861.238 377.838 856.883 382.376 851.929 384.294C853.431 384.802 854.997 385.094 856.581 385.159C862.127 385.159 866.569 380.457 871.681 378.477C870.059 377.912 868.353 377.63 866.636 377.644Z" fill="black"/>
<path d="M820.418 187.648V177.984H815.735C815.986 176.536 816.823 171.476 816.654 169.445C816.654 169.445 818.835 163.49 817.053 158.528C817.291 158.586 817.539 158.588 817.778 158.535C818.017 158.482 818.24 158.375 818.432 158.222C818.623 158.069 818.777 157.874 818.881 157.652C818.986 157.43 819.038 157.187 819.034 156.942C819.228 154.957 822.006 149.994 816.654 148.603L816.108 147.068C816.478 146.451 816.667 145.742 816.654 145.022C816.654 143.379 815.766 142.044 814.673 142.044C813.58 142.044 812.692 143.379 812.692 145.022C812.673 145.815 812.905 146.594 813.356 147.247L813.085 149.017C813.085 149.017 807.54 147.626 809.919 156.957C809.919 156.957 810.512 158.543 811.502 158.543C811.502 158.543 810.91 165.705 811.9 168.263C811.9 168.263 811.502 174.612 812.294 176.004V177.989H807.34V187.816C804.787 188.4 803.179 189.295 803.179 190.298C803.179 192.052 808.147 193.475 814.275 193.475C820.403 193.475 825.371 192.052 825.371 190.298C825.371 189.188 823.405 188.216 820.418 187.648Z" fill="#FBC661"/>
<path opacity="0.1" d="M814.77 144.924C814.784 145.644 814.596 146.352 814.229 146.971L814.77 148.506C820.122 149.892 817.349 154.854 817.15 156.839C817.153 157.085 817.101 157.328 816.997 157.55C816.892 157.772 816.739 157.967 816.548 158.12C816.356 158.274 816.133 158.381 815.894 158.435C815.655 158.489 815.407 158.487 815.169 158.43C816.951 163.393 814.77 169.348 814.77 169.348C814.939 171.394 814.101 176.433 813.851 177.886H815.638C815.889 176.433 816.731 171.379 816.563 169.348C816.563 169.348 818.738 163.393 816.956 158.43C817.194 158.487 817.442 158.489 817.681 158.435C817.92 158.381 818.144 158.274 818.335 158.12C818.526 157.967 818.68 157.772 818.784 157.55C818.888 157.328 818.941 157.085 818.937 156.839C819.136 154.854 821.909 149.892 816.563 148.506L816.016 146.971C816.385 146.353 816.574 145.644 816.563 144.924C816.563 143.282 815.674 141.947 814.581 141.947C814.256 141.952 813.942 142.065 813.688 142.269C814.053 142.604 814.339 143.016 814.526 143.475C814.713 143.934 814.797 144.429 814.77 144.924Z" fill="black"/>
<path opacity="0.1" d="M820.321 187.545V177.886H818.539V187.545C821.521 188.118 823.492 189.08 823.492 190.19C823.492 191.863 818.998 193.229 813.279 193.357H814.173C820.3 193.357 825.269 191.935 825.269 190.18C825.274 189.09 823.298 188.118 820.321 187.545Z" fill="black"/>
<path d="M825.616 94.2766C821.531 93.2535 817.14 92.4707 813.248 94.0413C811.462 94.8342 809.82 95.9181 808.387 97.249C807.065 98.4001 805.778 99.674 805.073 101.285C804.231 103.23 804.328 105.429 804.277 107.547C804.226 109.665 803.945 111.937 802.54 113.518C801.994 114.132 801.284 114.633 800.932 115.38C800.421 116.403 800.758 117.667 801.259 118.705C801.759 119.744 802.428 120.726 802.658 121.862C802.969 123.432 802.362 125.059 801.499 126.41C800.636 127.76 799.512 128.927 798.619 130.262C797.725 131.597 797.031 133.511 797.843 134.979C798.353 135.926 799.405 136.514 799.936 137.445C800.191 137.89 800.319 138.407 800.59 138.842C801.34 140.034 802.918 140.325 804.312 140.468C806.544 140.704 809.031 140.775 810.762 139.343C811.951 138.361 812.554 136.831 812.845 135.312C813.136 133.792 813.146 132.242 813.417 130.707C813.611 129.612 813.928 128.518 813.836 127.413C813.708 125.939 812.855 124.645 812.186 123.32C811.179 121.48 810.708 119.393 810.828 117.298C811.027 115.221 812.12 113.17 813.948 112.182C815.235 111.471 816.823 111.292 817.916 110.31C819.647 108.775 819.386 106.054 819.698 103.756C819.739 103.245 819.906 102.751 820.183 102.319C820.724 101.582 821.715 101.383 822.634 101.296C824.774 101.112 827.046 101.342 828.838 102.534C830.499 103.715 831.65 105.486 832.055 107.486C832.449 109.474 832.412 111.524 831.948 113.497C832.02 112.633 833.347 112.397 833.96 112.986C834.573 113.574 834.603 114.587 834.43 115.436C833.715 119.017 830.477 121.575 829.39 125.054C828.958 126.488 828.904 128.009 829.231 129.469C829.559 130.93 830.257 132.282 831.259 133.393C831.528 133.723 831.881 133.974 832.28 134.12C832.689 134.199 833.106 134.22 833.521 134.181C835.15 134.181 836.549 135.301 837.79 136.365C839.031 137.43 840.343 138.57 841.997 138.698C843.652 138.826 845.434 137.332 844.944 135.772C844.766 135.306 844.481 134.889 844.111 134.554C843.09 133.501 841.752 132.672 841.048 131.383C839.817 129.219 840.568 126.512 841.344 124.144C842.12 121.775 842.876 119.063 841.614 116.91C841.022 115.886 840.031 115.119 839.572 114.034C839.319 113.407 839.185 112.737 839.179 112.06C839.071 109.584 839.689 107.061 839.179 104.647C838.875 103.482 838.342 102.39 837.611 101.434C836.881 100.479 835.968 99.6785 834.925 99.0805C833.866 98.4352 832.716 97.9539 831.514 97.6532C831.049 97.5355 830.345 97.5611 830.018 97.2132C829.691 96.8653 829.579 96.2463 829.165 95.8575C828.164 94.998 826.837 94.5785 825.616 94.2766Z" fill="#7B5100"/>
<path opacity="0.05" d="M833.96 110.233C833.738 110.04 833.46 109.923 833.167 109.899C832.874 109.875 832.581 109.945 832.331 110.1C832.319 111.187 832.2 112.27 831.979 113.334C832.203 112.612 833.388 112.448 833.96 113.011C834.074 113.125 834.172 113.254 834.251 113.395C834.323 113.161 834.383 112.924 834.43 112.684C834.603 111.835 834.578 110.842 833.96 110.233Z" fill="black"/>
<path opacity="0.05" d="M839.128 109.307C839.133 109.511 839.148 109.714 839.174 109.916C839.323 108.518 839.356 107.109 839.271 105.706C839.157 106.903 839.109 108.105 839.128 109.307Z" fill="black"/>
<path opacity="0.05" d="M831.979 113.333C831.964 113.389 831.953 113.445 831.948 113.502L831.979 113.333Z" fill="black"/>
<path opacity="0.05" d="M840.491 127.254C840.688 126.212 840.961 125.186 841.308 124.184C841.926 122.312 842.518 120.22 842.115 118.357C841.926 119.4 841.656 120.426 841.308 121.427C840.69 123.279 840.088 125.381 840.491 127.254Z" fill="black"/>
<path opacity="0.05" d="M832.055 107.491C832.146 107.891 832.214 108.296 832.26 108.704C832.407 107.371 832.338 106.024 832.055 104.713C831.651 102.711 830.501 100.938 828.838 99.7558C827.046 98.5689 824.753 98.3336 822.634 98.5177C821.725 98.5996 820.724 98.7991 820.183 99.5409C819.906 99.971 819.739 100.463 819.698 100.973C819.386 103.276 819.647 105.982 817.916 107.527C816.823 108.514 815.235 108.693 813.948 109.404C812.12 110.428 811.027 112.474 810.828 114.52C810.763 115.259 810.791 116.003 810.91 116.736C811.049 115.793 811.396 114.893 811.926 114.102C812.456 113.311 813.156 112.648 813.974 112.162C815.26 111.451 816.849 111.272 817.941 110.29C819.672 108.755 819.412 106.033 819.723 103.736C819.765 103.224 819.931 102.73 820.209 102.298C820.75 101.562 821.74 101.362 822.66 101.275C824.799 101.091 827.072 101.321 828.864 102.513C830.521 103.706 831.662 105.486 832.055 107.491Z" fill="black"/>
<path opacity="0.05" d="M844.428 134.938C844.122 135.279 843.744 135.547 843.322 135.724C842.9 135.901 842.444 135.982 841.987 135.961C840.358 135.833 839.015 134.693 837.78 133.628C836.544 132.564 835.14 131.464 833.511 131.444C833.096 131.48 832.679 131.46 832.27 131.383C831.871 131.235 831.519 130.984 831.249 130.656C830.116 129.413 829.374 127.863 829.114 126.2C828.905 127.489 828.988 128.809 829.358 130.061C829.727 131.313 830.373 132.466 831.249 133.434C831.518 133.764 831.87 134.015 832.27 134.16C832.678 134.24 833.096 134.261 833.511 134.222C835.14 134.222 836.539 135.342 837.78 136.406C839.02 137.47 840.333 138.611 841.987 138.739C843.642 138.867 845.424 137.373 844.934 135.813C844.826 135.49 844.654 135.193 844.428 134.938Z" fill="black"/>
<path opacity="0.05" d="M802.535 121.391C802.757 120.642 802.799 119.852 802.658 119.084C802.428 117.953 801.754 116.971 801.259 115.932C801.157 115.721 801.065 115.506 800.983 115.288C800.983 115.319 800.947 115.349 800.932 115.385C800.421 116.408 800.758 117.672 801.259 118.71C801.746 119.573 802.172 120.469 802.535 121.391Z" fill="black"/>
<path opacity="0.05" d="M813.688 126.579C813.601 127.034 813.499 127.484 813.417 127.939C813.146 129.474 813.131 131.009 812.845 132.544C812.559 134.079 811.952 135.613 810.762 136.575C809.031 138.002 806.544 137.936 804.312 137.701C802.918 137.557 801.34 137.261 800.59 136.074C800.319 135.634 800.192 135.122 799.936 134.672C799.426 133.731 798.369 133.137 797.843 132.206C797.807 132.145 797.776 132.073 797.746 132.007C797.551 132.482 797.458 132.994 797.475 133.508C797.492 134.022 797.617 134.527 797.843 134.989C798.353 135.936 799.405 136.524 799.936 137.455C800.192 137.9 800.319 138.417 800.59 138.852C801.34 140.044 802.918 140.335 804.312 140.479C806.544 140.714 809.031 140.786 810.762 139.353C811.952 138.371 812.554 136.841 812.845 135.322C813.136 133.802 813.146 132.252 813.417 130.717C813.611 129.623 813.928 128.528 813.836 127.423C813.81 127.138 813.761 126.855 813.688 126.579Z" fill="black"/>
<path d="M794.661 146.019C794.661 146.019 792.108 147.411 790.5 160.313C788.891 173.216 788.12 186.916 788.12 186.916C788.12 186.916 788.12 198.432 799.017 198.826C799.017 198.826 803.378 199.624 804.767 200.617C806.156 201.609 827.95 194.856 817.645 193.454C807.34 192.052 803.577 192.656 803.577 192.656C803.577 192.656 798.026 189.075 798.026 185.709C798.026 182.342 803.577 162.319 803.577 162.319L794.661 146.019Z" fill="#FBB3B2"/>
<path d="M794.62 156.139C794.896 156.814 795.039 157.535 795.269 158.231C795.894 159.825 796.754 161.315 797.822 162.651C799.119 164.462 801.203 168.729 802.495 170.54C803.268 167.882 804.402 165.343 805.865 162.994L794.672 144.832C794.672 144.832 793.793 145.303 792.746 148.26C792.69 148.797 792.66 149.334 792.654 149.861C792.584 151.062 792.758 152.265 793.165 153.396C793.574 154.353 794.227 155.182 794.62 156.139Z" fill="#3F3D56"/>
<path d="M833 119.345C833 119.223 832.962 119.103 832.891 119.004C832.821 118.904 832.722 118.828 832.607 118.787V118.117C832.722 118.076 832.822 118.001 832.892 117.901C832.963 117.801 833 117.682 833 117.559C833.002 117.449 832.973 117.34 832.916 117.245C832.86 117.151 832.779 117.073 832.682 117.022C832.584 116.97 832.475 116.946 832.365 116.953C832.255 116.96 832.149 116.998 832.059 117.061C831.969 117.125 831.898 117.212 831.854 117.313C831.811 117.414 831.796 117.526 831.811 117.635C831.827 117.744 831.872 117.847 831.942 117.932C832.012 118.017 832.104 118.081 832.209 118.117V118.787C832.093 118.828 831.992 118.903 831.921 119.004C831.85 119.104 831.812 119.224 831.812 119.347C831.812 119.47 831.85 119.59 831.921 119.691C831.992 119.791 832.093 119.867 832.209 119.908V120.573C832.093 120.613 831.992 120.689 831.921 120.789C831.85 120.89 831.812 121.01 831.812 121.133C831.812 121.256 831.85 121.376 831.921 121.476C831.992 121.577 832.093 121.652 832.209 121.693V122.363C832.077 122.41 831.966 122.502 831.896 122.623C831.826 122.744 831.8 122.886 831.824 123.023C831.848 123.161 831.919 123.286 832.026 123.376C832.133 123.466 832.268 123.516 832.408 123.516C832.547 123.516 832.682 123.466 832.789 123.376C832.896 123.286 832.967 123.161 832.991 123.023C833.015 122.886 832.99 122.744 832.919 122.623C832.849 122.502 832.738 122.41 832.607 122.363V121.693C832.723 121.652 832.823 121.577 832.894 121.476C832.965 121.376 833.004 121.256 833.004 121.133C833.004 121.01 832.965 120.89 832.894 120.789C832.823 120.689 832.723 120.613 832.607 120.573V119.908C832.722 119.866 832.822 119.79 832.893 119.689C832.963 119.588 833.001 119.468 833 119.345Z" fill="#EEEFF3"/>
<path d="M852.123 138.079C855.17 143.186 857.376 148.749 858.66 154.558C860.641 163.889 862.03 165.874 862.03 165.874C862.03 165.874 870.751 188.108 861.039 189.5C851.327 190.891 834.292 189.5 834.292 189.5C834.292 189.5 799.814 195.455 811.9 187.515C823.987 179.575 833.511 180.562 833.511 180.562C833.511 180.562 847.977 180.168 849.958 178.777L853.722 178.383L844.806 152.972L852.123 138.079Z" fill="#FBB3B2"/>
<path d="M842.911 152.67L847.068 162.39C849.877 156.717 853.109 149.764 853.706 143.461C853.763 142.294 853.737 141.125 853.63 139.962C853.174 139.013 852.572 138.141 851.848 137.378L842.911 152.67Z" fill="#3F3D56"/>
<path d="M707.112 264.637C707.112 264.637 697.089 285.541 704.049 292.918C711.009 300.296 715.712 263.819 715.712 263.819L707.112 264.637Z" fill="#A0616A"/>
<path d="M658.627 362.393L647.393 376.533C647.393 376.533 624.685 385.553 645.55 386.765C645.55 386.765 655.763 385.947 657.805 384.509C659.848 383.072 661.078 380.207 665.169 381.849C669.259 383.491 673.967 380.207 673.967 380.207C673.967 380.207 674.58 364.219 670.489 362.378C666.399 360.536 658.627 362.393 658.627 362.393Z" fill="#36344A"/>
<path d="M700.566 367.514L697.906 379.199C697.906 379.199 691.972 393.135 700.566 391.083C709.16 389.032 713.454 386.781 714.271 382.683C715.088 378.585 717.335 374.073 717.335 374.073C717.335 374.073 714.879 367.719 712.632 367.514C710.386 367.309 700.566 367.514 700.566 367.514Z" fill="#36344A"/>
<path d="M645.739 226.299C645.739 226.299 638.375 276.946 643.492 304.573C648.609 332.199 654.726 360.526 654.726 360.526C654.726 360.526 647.577 376.897 672.088 366.061C672.088 366.061 670.454 325.476 665.541 309.699C660.629 293.921 668.064 272.618 670.106 272.004C670.106 272.004 678.277 313.203 686.268 326.745C694.26 340.287 698.702 371.822 698.702 371.822C698.702 371.822 715.89 374.073 715.686 369.565C715.482 365.058 712.413 326.934 702.409 313.408C702.409 313.408 693.815 290.862 699.346 267.497C704.876 244.133 693.412 236.137 693.412 236.137L675.213 214.619L657.009 210.526L645.739 226.299Z" fill="#3F3D56"/>
<path d="M699.723 139.041C699.532 139.708 699.222 140.335 698.809 140.893C698.382 141.352 697.878 141.731 697.318 142.013C695.521 143.03 693.619 143.848 691.645 144.454C691.134 145.477 691.962 146.628 692.748 147.457L695.056 149.902C696.404 151.324 697.752 152.747 699.208 154.056C702.022 156.586 705.215 158.658 708.67 160.195C710.477 160.999 712.811 161.572 714.261 160.226C715.711 158.881 715.349 156.517 716.227 154.762C716.338 154.658 716.423 154.529 716.476 154.386C716.529 154.243 716.548 154.089 716.531 153.938C716.515 153.786 716.464 153.64 716.382 153.512C716.3 153.383 716.189 153.275 716.059 153.197C714.874 152.025 714.634 150.173 714.884 148.526C715.134 146.879 715.803 145.323 716.186 143.702C716.569 142.08 716.641 140.269 715.778 138.842C715.27 138.082 714.613 137.435 713.848 136.938C712.171 135.747 710.302 134.854 708.323 134.299C707.301 134.017 706.28 133.828 705.259 133.526C704.626 133.332 702.91 132.145 702.368 132.242C701.255 132.426 700.117 137.849 699.723 139.041Z" fill="#A0616A"/>
<path opacity="0.1" d="M699.723 139.041C699.532 139.708 699.222 140.335 698.809 140.893C698.382 141.352 697.878 141.731 697.318 142.013C695.521 143.03 693.619 143.848 691.645 144.454C691.134 145.477 691.962 146.628 692.748 147.457L695.056 149.902C696.404 151.324 697.752 152.747 699.208 154.056C702.022 156.586 705.215 158.658 708.67 160.195C710.477 160.999 712.811 161.572 714.261 160.226C715.711 158.881 715.349 156.517 716.227 154.762C716.338 154.658 716.423 154.529 716.476 154.386C716.529 154.243 716.548 154.089 716.531 153.938C716.515 153.786 716.464 153.64 716.382 153.512C716.3 153.383 716.189 153.275 716.059 153.197C714.874 152.025 714.634 150.173 714.884 148.526C715.134 146.879 715.803 145.323 716.186 143.702C716.569 142.08 716.641 140.269 715.778 138.842C715.27 138.082 714.613 137.435 713.848 136.938C712.171 135.747 710.302 134.854 708.323 134.299C707.301 134.017 706.28 133.828 705.259 133.526C704.626 133.332 702.91 132.145 702.368 132.242C701.255 132.426 700.117 137.849 699.723 139.041Z" fill="black"/>
<path d="M697.431 142.719C697.405 142.315 697.359 141.845 697.017 141.625C696.818 141.515 696.59 141.467 696.363 141.487C691.533 141.487 687.616 145.293 684.578 149.048C678.174 156.952 673.124 165.874 668.748 175.068C666.057 180.731 663.56 187.1 665.291 193.132C665.838 194.921 666.653 196.616 667.706 198.161C669.158 200.368 670.919 202.355 672.935 204.06C673.692 204.789 674.63 205.301 675.652 205.543C677.184 205.789 678.639 204.945 679.946 204.131C682.571 202.494 685.184 200.84 687.785 199.169C692.008 196.457 696.231 193.7 699.953 190.334C703.676 186.967 706.908 182.946 708.741 178.27C709.522 176.285 710.043 174.177 710.922 172.254C712.26 169.292 714.42 166.677 715.185 163.516C715.548 162.007 715.579 160.446 715.967 158.937C716.273 157.735 716.804 156.599 717.06 155.387C717.315 154.174 717.254 152.829 716.482 151.836C715.185 150.189 712.663 150.434 710.61 150.859C707.934 151.411 703.165 152.772 700.617 151.151C698.437 149.754 697.584 145.093 697.431 142.719Z" fill="#EEEFF3"/>
<path d="M696.067 152.516L693.203 152.721L691.16 151.897L692.799 146.981C692.799 146.981 698.569 147.636 699.162 149.457C699.162 149.457 699.591 150.711 700.285 150.895C700.98 151.079 703.86 150.67 704.457 152.102C705.055 153.535 704.866 161.311 700.98 160.288L699.141 155.366L698.319 154.138C698.319 154.138 695.863 153.744 696.067 152.516Z" fill="#3F3D56"/>
<path d="M672.537 198.222C672.537 198.222 678.879 156.41 698.723 141.435C698.723 141.435 698.927 137.542 695.449 137.951C691.972 138.361 677.449 135.491 677.449 135.491L663.744 162.14C663.744 162.14 660.68 186.937 658.423 191.034C656.166 195.132 642.057 227.726 642.057 227.726C642.057 227.726 650.038 254.574 661.9 218.517C661.9 218.517 652.709 247.826 678.675 250.696C704.641 253.567 701.587 249.054 701.587 249.054L704.651 227.741V211.749L710.38 200.494L733.701 170.775C733.701 170.775 717.871 148.818 714.848 150.777C714.854 150.757 695.245 181.826 672.537 198.222Z" fill="#3F3D56"/>
<path d="M680.518 137.143L677.454 135.501C677.454 135.501 668.043 138.985 664.77 152.516C664.77 152.516 656.794 158.251 651.494 162.559C651.494 162.559 644.345 149.258 644.345 144.725C644.345 144.725 632.477 152.721 629.817 150.67C629.817 150.67 636.966 183.667 650.483 181.207C663.999 178.746 669.085 170.755 669.085 170.755L680.518 137.143Z" fill="#3F3D56"/>
<path d="M725.935 171.988L733.706 170.755C733.706 170.755 738.619 177.313 729.82 186.947L724.5 219.535C724.5 219.535 725.112 230.396 723.274 238.597C721.436 246.798 718.566 272.004 718.566 272.004C718.566 272.004 709.16 268.52 704.043 269.134L711.815 193.526L725.935 171.988Z" fill="#3F3D56"/>
<path d="M643.9 146.971C643.9 146.971 639.601 121.146 632.238 130.779C624.874 140.412 633.055 153.734 633.055 153.734L643.9 146.971Z" fill="#A0616A"/>
<path d="M715.4 148.316C724.552 148.316 731.97 140.884 731.97 131.715C731.97 122.547 724.552 115.114 715.4 115.114C706.249 115.114 698.83 122.547 698.83 131.715C698.83 140.884 706.249 148.316 715.4 148.316Z" fill="#A0616A"/>
<path d="M728.646 113.804C728.267 113.332 727.926 112.831 727.625 112.305C726.629 110.842 725.071 109.885 723.54 109.026C720.736 107.491 717.54 106.048 714.42 106.795C712.26 107.307 710.426 108.842 708.251 109.282C706.076 109.722 703.492 109.236 702.026 110.873C700.561 112.51 701.209 115.088 699.948 116.782C699.248 117.718 697.951 118.577 698.304 119.693C698.452 120.163 698.886 120.496 699.085 120.951C699.437 121.749 699.003 122.665 698.983 123.54C698.957 124.834 699.841 125.944 700.464 127.08C701.087 128.216 701.424 129.802 700.464 130.692C703.713 128.088 707.275 125.9 711.065 124.179C711.059 124.704 710.922 125.22 710.666 125.678C712.719 125.375 714.75 124.943 716.748 124.384L715.696 126.405L720.21 124.43C721.431 123.893 722.963 123.407 724.004 124.225C724.484 124.684 724.821 125.272 724.974 125.919C725.57 127.767 725.923 129.684 726.026 131.623C726.139 133.813 726.026 136.227 727.441 137.9C727.842 138.324 728.325 138.661 728.861 138.89C729.397 139.119 729.974 139.235 730.557 139.231C731.14 139.227 731.715 139.104 732.248 138.868C732.781 138.632 733.26 138.288 733.655 137.859C734.054 136.325 733.456 134.739 733.426 133.163C733.38 130.866 734.534 128.707 734.743 126.42C735.014 123.53 733.308 121.816 732.532 119.258C732.231 118.275 732.414 117.114 731.837 116.188C731.092 115.042 729.57 114.786 728.646 113.804Z" fill="#3F3D56"/>
<path d="M632.345 160.625L638.253 150.685L633.432 147.81C634.576 146.469 638.539 141.783 639.596 139.594C639.596 139.594 645.478 134.805 646.678 128.605C646.678 128.605 648.271 130.109 649.691 128.185C651.111 126.261 656.993 122.864 652.341 118.153L652.714 116.244C653.472 115.836 654.1 115.223 654.527 114.474C655.548 112.781 655.431 110.893 654.307 110.197C653.184 109.502 651.453 110.351 650.447 112.044C649.945 112.848 649.709 113.79 649.773 114.735L648.43 116.372C648.43 116.372 643.568 111.538 640.311 122.593C640.311 122.593 639.953 124.594 640.974 125.202C640.974 125.202 635.991 132.186 635.434 135.434C635.434 135.434 631.145 141.727 631.109 143.62L629.894 145.666L624.787 142.627L618.782 152.742C615.815 151.785 613.599 151.718 612.986 152.742C611.914 154.548 616.152 159.06 622.459 162.82C628.765 166.58 634.74 168.161 635.812 166.36C636.501 165.25 635.066 163.04 632.345 160.625Z" fill="#FBC661"/>
<path opacity="0.1" d="M652.648 113.206C652.221 113.954 651.595 114.569 650.84 114.981L650.462 116.884C655.119 121.596 649.232 124.998 647.812 126.921C647.666 127.176 647.463 127.393 647.22 127.557C646.977 127.721 646.7 127.827 646.41 127.867C646.119 127.907 645.824 127.88 645.545 127.788C645.267 127.696 645.014 127.541 644.804 127.336C643.604 133.536 637.722 138.325 637.722 138.325C636.655 140.52 632.702 145.206 631.558 146.541L633.392 147.636C634.535 146.301 638.498 141.609 639.555 139.42C639.555 139.42 645.438 134.631 646.638 128.431C646.638 128.431 648.231 129.935 649.65 128.011C651.07 126.088 656.952 122.691 652.3 117.979L652.673 116.071C653.429 115.661 654.055 115.048 654.481 114.3C655.502 112.612 655.39 110.719 654.266 110.024C653.929 109.83 653.538 109.753 653.153 109.804C653.325 110.373 653.369 110.973 653.282 111.561C653.194 112.15 652.978 112.711 652.648 113.206Z" fill="black"/>
<path opacity="0.1" d="M632.319 160.462L638.227 150.521L636.404 149.426L630.496 159.367C633.218 161.787 634.648 163.971 633.974 165.127C632.952 166.841 627.494 165.491 621.54 162.124C621.841 162.308 622.142 162.498 622.454 162.682C628.755 166.442 634.734 168.028 635.807 166.222C636.455 165.086 635.025 162.876 632.319 160.462Z" fill="black"/>
<path d="M21.116 241.972V245.32H14.132V268H10.64V245.32H3.836V241.972H21.116ZM47.3251 268H43.8331V256.588H30.1891V268H26.6971V241.972H30.1891V253.24H43.8331V241.972H47.3251V268ZM71.7421 241.972V245.32H58.3141V253.24H70.3021V256.588H58.3141V264.616H72.2461V268H54.8221V241.972H71.7421ZM30.32 350.44C25.776 350.44 21.52 349.416 17.552 347.368C15.76 346.472 14.256 345.416 13.04 344.2C12.144 345.672 11.024 346.984 9.68 348.136C8.528 348.968 7.888 349.416 7.76 349.48H5.36V331.24H9.2C10.16 334.376 11.504 337.192 13.232 339.688C17.136 345.256 22.192 348.04 28.4 348.04C32.048 348.04 34.96 346.952 37.136 344.776C39.312 342.6 40.4 339.688 40.4 336.04C40.4 333.928 39.76 332.04 38.48 330.376C37.264 328.712 35.728 327.24 33.872 325.96C32.016 324.68 29.424 323.08 26.096 321.16C21.872 318.792 18.448 316.648 15.824 314.728C13.2 312.808 10.96 310.408 9.104 307.528C7.248 304.584 6.32 301.128 6.32 297.16C6.32 294.024 7.184 291.208 8.912 288.712C10.704 286.152 13.36 284.136 16.88 282.664C20.4 281.128 24.72 280.36 29.84 280.36C33.552 280.36 37.264 281.416 40.976 283.528C42.384 284.296 43.792 285.32 45.2 286.6C46.288 284.936 47.408 283.624 48.56 282.664C49.712 281.832 50.352 281.384 50.48 281.32H52.88V299.56H49.04C48.208 296.488 46.96 293.704 45.296 291.208C43.76 288.776 41.84 286.76 39.536 285.16C37.296 283.56 34.704 282.76 31.76 282.76C29.264 282.76 27.12 283.752 25.328 285.736C23.536 287.72 22.64 290.248 22.64 293.32C22.64 295.688 23.312 297.832 24.656 299.752C26.064 301.608 27.76 303.24 29.744 304.648C31.792 306.056 34.544 307.752 38 309.736C42.032 312.04 45.296 314.088 47.792 315.88C50.288 317.672 52.4 319.912 54.128 322.6C55.856 325.224 56.72 328.264 56.72 331.72C56.72 335.176 55.728 338.344 53.744 341.224C51.76 344.04 48.784 346.28 44.816 347.944C40.848 349.608 36.016 350.44 30.32 350.44ZM63.8938 349V347.56L69.6538 346.12V284.68L63.8938 283.24V281.8H91.2538V283.24L85.4938 284.68V314.44H106.134V284.68L100.374 283.24V281.8H127.734V283.24L121.974 284.68V346.12L127.734 347.56V349H100.374V347.56L106.134 346.12V316.84H85.4938V346.12L91.2538 347.56V349H63.8938ZM168.02 350.44C161.748 350.44 156.244 349.096 151.508 346.408C146.836 343.656 143.22 339.656 140.66 334.408C138.1 329.16 136.82 322.824 136.82 315.4C136.82 307.976 138.1 301.64 140.66 296.392C143.22 291.144 146.836 287.176 151.508 284.488C156.244 281.736 161.748 280.36 168.02 280.36C174.292 280.36 179.764 281.736 184.436 284.488C189.172 287.176 192.82 291.144 195.38 296.392C197.94 301.64 199.22 307.976 199.22 315.4C199.22 322.824 197.94 329.16 195.38 334.408C192.82 339.656 189.172 343.656 184.436 346.408C179.764 349.096 174.292 350.44 168.02 350.44ZM168.02 348.52C170.516 348.52 172.82 347.464 174.932 345.352C177.108 343.24 178.9 339.72 180.308 334.792C181.716 329.864 182.42 323.4 182.42 315.4C182.42 307.4 181.716 300.936 180.308 296.008C178.9 291.08 177.108 287.56 174.932 285.448C172.82 283.336 170.516 282.28 168.02 282.28C165.524 282.28 163.188 283.336 161.012 285.448C158.9 287.56 157.14 291.08 155.732 296.008C154.324 300.936 153.62 307.4 153.62 315.4C153.62 323.4 154.324 329.864 155.732 334.792C157.14 339.72 158.9 343.24 161.012 345.352C163.188 347.464 165.524 348.52 168.02 348.52ZM208.363 347.56L214.123 346.12V284.68L208.363 283.24V281.8H235.243C245.867 281.8 253.483 283.56 258.091 287.08C262.699 290.536 265.003 295.656 265.003 302.44C265.003 309.224 262.699 314.376 258.091 317.896C253.483 321.352 245.867 323.08 235.243 323.08H229.963V346.12L235.723 347.56V349H208.363V347.56ZM235.243 320.68C239.275 320.68 242.507 319.144 244.939 316.072C247.435 313 248.683 308.456 248.683 302.44C248.683 296.488 247.435 291.976 244.939 288.904C242.507 285.768 239.275 284.2 235.243 284.2H229.963V320.68H235.243ZM273.144 347.56L278.904 346.12V284.68L273.144 283.24V281.8H300.024C310.648 281.8 318.264 283.56 322.872 287.08C327.48 290.536 329.784 295.656 329.784 302.44C329.784 309.224 327.48 314.376 322.872 317.896C318.264 321.352 310.648 323.08 300.024 323.08H294.744V346.12L300.504 347.56V349H273.144V347.56ZM300.024 320.68C304.056 320.68 307.288 319.144 309.72 316.072C312.216 313 313.464 308.456 313.464 302.44C313.464 296.488 312.216 291.976 309.72 288.904C307.288 285.768 304.056 284.2 300.024 284.2H294.744V320.68H300.024ZM337.925 349V347.56L343.685 346.12V284.68L337.925 283.24V281.8H365.285V283.24L359.525 284.68V346.12L365.285 347.56V349H337.925ZM373.925 347.56L379.685 346.12V284.68L373.925 283.24V281.8H425.285V299.08H422.405C421.189 298.12 420.133 296.904 419.237 295.432C417.189 291.976 416.165 288.232 416.165 284.2H395.525V314.44H406.565C407.013 312.008 407.845 309.736 409.061 307.624C409.573 306.664 410.181 305.736 410.885 304.84H413.765V326.44H410.885C410.181 325.544 409.573 324.616 409.061 323.656C407.845 321.544 407.013 319.272 406.565 316.84H395.525V346.6H418.085C418.085 342.568 419.109 338.824 421.157 335.368C422.053 333.896 423.109 332.68 424.325 331.72H427.205V349H373.925V347.56ZM459.32 350.44C454.776 350.44 450.52 349.416 446.552 347.368C444.76 346.472 443.256 345.416 442.04 344.2C441.144 345.672 440.024 346.984 438.68 348.136C437.528 348.968 436.888 349.416 436.76 349.48H434.36V331.24H438.2C439.16 334.376 440.504 337.192 442.232 339.688C446.136 345.256 451.192 348.04 457.4 348.04C461.048 348.04 463.96 346.952 466.136 344.776C468.312 342.6 469.4 339.688 469.4 336.04C469.4 333.928 468.76 332.04 467.48 330.376C466.264 328.712 464.728 327.24 462.872 325.96C461.016 324.68 458.424 323.08 455.096 321.16C450.872 318.792 447.448 316.648 444.824 314.728C442.2 312.808 439.96 310.408 438.104 307.528C436.248 304.584 435.32 301.128 435.32 297.16C435.32 294.024 436.184 291.208 437.912 288.712C439.704 286.152 442.36 284.136 445.88 282.664C449.4 281.128 453.72 280.36 458.84 280.36C462.552 280.36 466.264 281.416 469.976 283.528C471.384 284.296 472.792 285.32 474.2 286.6C475.288 284.936 476.408 283.624 477.56 282.664C478.712 281.832 479.352 281.384 479.48 281.32H481.88V299.56H478.04C477.208 296.488 475.96 293.704 474.296 291.208C472.76 288.776 470.84 286.76 468.536 285.16C466.296 283.56 463.704 282.76 460.76 282.76C458.264 282.76 456.12 283.752 454.328 285.736C452.536 287.72 451.64 290.248 451.64 293.32C451.64 295.688 452.312 297.832 453.656 299.752C455.064 301.608 456.76 303.24 458.744 304.648C460.792 306.056 463.544 307.752 467 309.736C471.032 312.04 474.296 314.088 476.792 315.88C479.288 317.672 481.4 319.912 483.128 322.6C484.856 325.224 485.72 328.264 485.72 331.72C485.72 335.176 484.728 338.344 482.744 341.224C480.76 344.04 477.784 346.28 473.816 347.944C469.848 349.608 465.016 350.44 459.32 350.44Z" fill="#2F2E41"/>
</svg>
